<svg width="25" height="25" viewBox="0 0 25 25" fill="none" xmlns="http://www.w3.org/2000/svg">
<path d="M18.3734 8.39893C18.3734 6.77462 17.7281 5.21684 16.5796 4.06829C15.431 2.91973 13.8732 2.27448 12.2489 2.27448C10.6246 2.27448 9.06685 2.91973 7.91829 4.06829C6.76974 5.21684 6.12448 6.77462 6.12448 8.39893C6.12448 15.5441 3.06226 17.5856 3.06226 17.5856H21.4356C21.4356 17.5856 18.3734 15.5441 18.3734 8.39893Z" stroke="#FFB200" stroke-width="1.67025" stroke-linecap="round" stroke-linejoin="round"/>
<path d="M14.0144 21.668C13.835 21.9773 13.5774 22.2341 13.2675 22.4126C12.9576 22.5911 12.6062 22.6851 12.2485 22.6851C11.8909 22.6851 11.5395 22.5911 11.2296 22.4126C10.9197 22.2341 10.6621 21.9773 10.4827 21.668" stroke="#FFB200" stroke-width="1.67025" stroke-linecap="round" stroke-linejoin="round"/>
</svg>
