<svg width="25" height="25" viewBox="0 0 25 25" fill="none" xmlns="http://www.w3.org/2000/svg">
<g clip-path="url(#clip0_353_338)">
<path d="M16.5235 1.99988H8.1435C4.5035 1.99988 2.3335 4.16988 2.3335 7.80988V16.1799C2.3335 19.8299 4.5035 21.9999 8.1435 21.9999H16.5135C20.1535 21.9999 22.3235 19.8299 22.3235 16.1899V7.80988C22.3335 4.16988 20.1635 1.99988 16.5235 1.99988ZM18.6135 12.9099C18.6135 13.1099 18.6035 13.3099 18.5835 13.4999C18.4035 15.6199 17.1535 16.6799 14.8535 16.6799H14.5335C14.3335 16.6799 14.1435 16.7699 14.0335 16.9299L13.0935 18.1899C12.6735 18.7499 12.0035 18.7499 11.5835 18.1899L10.6435 16.9299C10.5164 16.7838 10.3366 16.6939 10.1435 16.6799H9.8235C7.3135 16.6799 6.0635 16.0599 6.0635 12.9199V9.75988C6.0635 7.45988 7.1235 6.20988 9.2435 6.02988C9.4135 6.00988 9.6135 5.99988 9.8235 5.99988H14.8535C17.3635 5.99988 18.6135 7.25988 18.6135 9.75988V12.9099Z" fill="#BBBBBB"/>
<path d="M15.5235 0.999878H7.1435C3.5035 0.999878 1.3335 3.16988 1.3335 6.80988V15.1799C1.3335 18.8299 3.5035 20.9999 7.1435 20.9999H15.5135C19.1535 20.9999 21.3235 18.8299 21.3235 15.1899V6.80988C21.3335 3.16988 19.1635 0.999878 15.5235 0.999878ZM17.6135 11.9099C17.6135 12.1099 17.6035 12.3099 17.5835 12.4999C17.4035 14.6199 16.1535 15.6799 13.8535 15.6799H13.5335C13.3335 15.6799 13.1435 15.7699 13.0335 15.9299L12.0935 17.1899C11.6735 17.7499 11.0035 17.7499 10.5835 17.1899L9.6435 15.9299C9.5164 15.7838 9.33664 15.6939 9.1435 15.6799H8.8235C6.3135 15.6799 5.0635 15.0599 5.0635 11.9199V8.75988C5.0635 6.45988 6.1235 5.20988 8.2435 5.02988C8.4135 5.00988 8.6135 4.99988 8.8235 4.99988H13.8535C16.3635 4.99988 17.6135 6.25988 17.6135 8.75988V11.9099Z" fill="#BABEC1"/>
</g>
<defs>
<clipPath id="clip0_353_338">
<rect width="24" height="24" fill="white" transform="translate(0.397461 0.371704)"/>
</clipPath>
</defs>
</svg>
