<svg width="28" height="27" viewBox="0 0 28 27" fill="none" xmlns="http://www.w3.org/2000/svg">
<path fill-rule="evenodd" clip-rule="evenodd" d="M6.76641 11.1532C6.47461 11.7877 6.47461 12.5094 6.47461 13.953V18.4613C6.47461 20.4661 6.47461 21.4685 7.09741 22.0913C7.65804 22.6519 8.52626 22.7078 10.1563 22.7134V17.3982C10.1563 16.2021 11.126 15.2324 12.3221 15.2324H15.5117C16.7078 15.2324 17.6774 16.2021 17.6774 17.3982V22.7134C19.3075 22.7078 20.1758 22.6519 20.7364 22.0913C21.3592 21.4685 21.3592 20.4661 21.3592 18.4613V13.953C21.3592 12.5094 21.3592 11.7877 21.0674 11.1532C20.7756 10.5188 20.2276 10.049 19.1316 9.10959L18.0684 8.19828C16.0873 6.50024 15.0968 5.65121 13.9169 5.65121C12.737 5.65121 11.7465 6.50024 9.76544 8.19828L8.70225 9.10959C7.60623 10.049 7.05822 10.5188 6.76641 11.1532ZM15.4723 22.7141V17.4376H12.3615V22.7141H15.4723Z" fill="#BBBBBB"/>
</svg>
