<svg width="25" height="25" viewBox="0 0 25 25" fill="none" xmlns="http://www.w3.org/2000/svg">
<path d="M12.2487 22.8556C17.8861 22.8556 22.4561 18.2856 22.4561 12.6482C22.4561 7.01075 17.8861 2.44073 12.2487 2.44073C6.61128 2.44073 2.04126 7.01075 2.04126 12.6482C2.04126 18.2856 6.61128 22.8556 12.2487 22.8556Z" stroke="#FFB200" stroke-width="2.227" stroke-linecap="round" stroke-linejoin="round"/>
<path d="M9.27808 9.58579C9.51806 8.90359 9.99173 8.32834 10.6152 7.96192C11.2387 7.5955 11.9717 7.46156 12.6845 7.58382C13.3972 7.70608 14.0437 8.07664 14.5095 8.62989C14.9752 9.18314 15.2301 9.88336 15.229 10.6065C15.229 12.648 12.1668 13.6688 12.1668 13.6688" stroke="#FFB200" stroke-width="2.227" stroke-linecap="round" stroke-linejoin="round"/>
<path d="M12.2485 17.7511H12.2595" stroke="#FFB200" stroke-width="2.227" stroke-linecap="round" stroke-linejoin="round"/>
</svg>
