<svg width="25" height="26" viewBox="0 0 25 26" fill="none" xmlns="http://www.w3.org/2000/svg">
<mask id="mask0_112_358" style="mask-type:alpha" maskUnits="userSpaceOnUse" x="0" y="0" width="25" height="26">
<rect y="0.730042" width="24.4978" height="24.4978" fill="#D9D9D9"/>
</mask>
<g mask="url(#mask0_112_358)">
<path d="M12.2493 22.6759C10.9223 22.6759 9.6675 22.4207 8.4848 21.9103C7.30278 21.4 6.27353 20.7066 5.39706 19.8301C4.52126 18.9543 3.82817 17.9254 3.3178 16.7433C2.80743 15.5606 2.55225 14.3058 2.55225 12.9789C2.55225 11.6349 2.80743 10.376 3.3178 9.20211C3.82817 8.02825 4.52126 7.00309 5.39706 6.12661C6.27353 5.25081 7.30278 4.55773 8.4848 4.04736C9.6675 3.53698 10.9223 3.2818 12.2493 3.2818C13.5933 3.2818 14.8522 3.53698 16.026 4.04736C17.1999 4.55773 18.2247 5.25081 19.1005 6.12661C19.977 7.00309 20.6704 8.02825 21.1808 9.20211C21.6912 10.376 21.9464 11.6349 21.9464 12.9789C21.9464 14.3058 21.6912 15.5606 21.1808 16.7433C20.6704 17.9254 19.977 18.9543 19.1005 19.8301C18.2247 20.7066 17.1999 21.4 16.026 21.9103C14.8522 22.4207 13.5933 22.6759 12.2493 22.6759ZM12.2493 21.1193C12.7767 20.4388 13.2149 19.7457 13.564 19.04C13.9124 18.3337 14.2057 17.5637 14.4439 16.7301H10.0547C10.2929 17.5807 10.5865 18.3588 10.9356 19.0645C11.284 19.7709 11.7219 20.4558 12.2493 21.1193ZM10.2844 20.8386C9.89308 20.2772 9.54025 19.6392 9.22586 18.9247C8.91079 18.2102 8.66819 17.4786 8.49807 16.7301H5.02755C5.57194 17.7848 6.29497 18.6739 7.19662 19.3973C8.09828 20.12 9.12753 20.6004 10.2844 20.8386ZM14.2142 20.8386C15.3711 20.6004 16.4003 20.12 17.302 19.3973C18.2036 18.6739 18.9267 17.7848 19.4711 16.7301H16.0005C15.7964 17.4786 15.5412 18.2142 15.235 18.9369C14.9287 19.6603 14.5885 20.2942 14.2142 20.8386ZM4.38958 15.199H8.19185C8.1238 14.8247 8.07276 14.4545 8.03874 14.0884C8.00471 13.723 7.9877 13.3531 7.9877 12.9789C7.9877 12.6046 8.00471 12.2344 8.03874 11.8683C8.07276 11.5029 8.1238 11.133 8.19185 10.7587H4.38958C4.28751 11.099 4.21095 11.4562 4.15991 11.8305C4.10888 12.2048 4.08336 12.5876 4.08336 12.9789C4.08336 13.3701 4.10888 13.7529 4.15991 14.1272C4.21095 14.5015 4.28751 14.8587 4.38958 15.199ZM9.72296 15.199H14.7756C14.8437 14.8247 14.8947 14.4589 14.9287 14.1017C14.9628 13.7444 14.9798 13.3701 14.9798 12.9789C14.9798 12.5876 14.9628 12.2133 14.9287 11.856C14.8947 11.4988 14.8437 11.133 14.7756 10.7587H9.72296C9.65491 11.133 9.60387 11.4988 9.56985 11.856C9.53582 12.2133 9.51881 12.5876 9.51881 12.9789C9.51881 13.3701 9.53582 13.7444 9.56985 14.1017C9.60387 14.4589 9.65491 14.8247 9.72296 15.199ZM16.3067 15.199H20.109C20.2111 14.8587 20.2876 14.5015 20.3387 14.1272C20.3897 13.7529 20.4152 13.3701 20.4152 12.9789C20.4152 12.5876 20.3897 12.2048 20.3387 11.8305C20.2876 11.4562 20.2111 11.099 20.109 10.7587H16.3067C16.3748 11.133 16.4258 11.5029 16.4599 11.8683C16.4939 12.2344 16.5109 12.6046 16.5109 12.9789C16.5109 13.3531 16.4939 13.723 16.4599 14.0884C16.4258 14.4545 16.3748 14.8247 16.3067 15.199ZM16.0005 9.22762H19.4711C18.9267 8.15584 18.2081 7.26678 17.3152 6.56042C16.4218 5.85475 15.3881 5.36581 14.2142 5.09362C14.6055 5.68905 14.9543 6.3396 15.2605 7.04528C15.5667 7.75163 15.8134 8.47908 16.0005 9.22762ZM10.0547 9.22762H14.4439C14.2057 8.377 13.9039 7.59001 13.5385 6.86665C13.1724 6.14396 12.7427 5.46789 12.2493 4.83843C11.7559 5.46789 11.3265 6.14396 10.9611 6.86665C10.595 7.59001 10.2929 8.377 10.0547 9.22762ZM5.02755 9.22762H8.49807C8.68521 8.47908 8.93189 7.75163 9.23811 7.04528C9.54433 6.3396 9.89308 5.68905 10.2844 5.09362C9.0935 5.36581 8.05575 5.85475 7.1711 6.56042C6.28646 7.26678 5.57194 8.15584 5.02755 9.22762Z" fill="#FFB200"/>
</g>
</svg>
