<svg width="25" height="25" viewBox="0 0 25 25" fill="none" xmlns="http://www.w3.org/2000/svg">
<path d="M21.4356 12.1317C21.4391 13.4789 21.1244 14.8079 20.517 16.0105C19.7967 17.4515 18.6896 18.6636 17.3194 19.5109C15.9493 20.3582 14.3703 20.8073 12.7593 20.808C11.4121 20.8115 10.083 20.4967 8.88049 19.8893L3.06226 21.8287L5.00167 16.0105C4.39425 14.8079 4.07949 13.4789 4.083 12.1317C4.08362 10.5207 4.53275 8.94169 5.38008 7.57155C6.2274 6.2014 7.43946 5.09422 8.88049 4.37402C10.083 3.76661 11.4121 3.45184 12.7593 3.45535H13.2697C15.3973 3.57273 17.4068 4.47075 18.9135 5.97746C20.4202 7.48418 21.3182 9.49371 21.4356 11.6213V12.1317Z" stroke="#FFB200" stroke-width="2.227" stroke-linecap="round" stroke-linejoin="round"/>
</svg>
