<svg width="28" height="25" viewBox="0 0 28 25" fill="none" xmlns="http://www.w3.org/2000/svg">
<path d="M14.3205 15.7C16.7785 15.7 18.7693 13.91 18.7693 11.7V6.20001C18.7693 3.99001 16.7785 2.20001 14.3205 2.20001C11.8626 2.20001 9.87183 3.99001 9.87183 6.20001V11.7C9.87183 13.91 11.8626 15.7 14.3205 15.7Z" stroke="black" stroke-width="2" stroke-linecap="round" stroke-linejoin="round"/>
<path fill-rule="evenodd" clip-rule="evenodd" d="M5.81241 9.10004C6.27309 9.10004 6.64654 9.43582 6.64654 9.85004V11.55C6.64654 15.3558 10.0879 18.45 14.3206 18.45C18.5533 18.45 21.9946 15.3558 21.9946 11.55V9.85004C21.9946 9.43582 22.3681 9.10004 22.8288 9.10004C23.2894 9.10004 23.6629 9.43582 23.6629 9.85004V11.55C23.6629 16.1843 19.4747 19.95 14.3206 19.95C9.1665 19.95 4.97827 16.1843 4.97827 11.55V9.85004C4.97827 9.43582 5.35173 9.10004 5.81241 9.10004Z" fill="black"/>
<path d="M14.3206 19.2V22.2" stroke="black" stroke-width="1.5" stroke-linecap="round" stroke-linejoin="round"/>
</svg>
