<svg width="21" height="18" viewBox="0 0 21 18" fill="none" xmlns="http://www.w3.org/2000/svg">
<path d="M5.69425 0.76235C5.87225 0.66435 6.06425 0.81435 6.06425 1.01935V14.5753C6.06425 14.7983 5.91125 14.9874 5.71425 15.0914C5.70756 15.0946 5.70089 15.098 5.69425 15.1014L3.34425 16.4414C1.70425 17.3814 0.354248 16.6014 0.354248 14.7014V4.97235C0.354248 4.34235 0.804248 3.56235 1.36425 3.24235L5.69425 0.76235ZM12.7862 3.29535C12.8696 3.33664 12.9397 3.40034 12.9888 3.4793C13.0379 3.55827 13.0641 3.64936 13.0642 3.74235V16.8953C13.0642 16.9799 13.0426 17.0631 13.0017 17.1371C12.9607 17.2111 12.9017 17.2734 12.83 17.3184C12.7584 17.3633 12.6766 17.3894 12.5921 17.3941C12.5077 17.3988 12.4234 17.3821 12.3472 17.3454L8.09725 15.2984C8.01254 15.2575 7.94105 15.1937 7.89099 15.1141C7.84093 15.0345 7.81433 14.9424 7.81425 14.8484V1.63935C7.81408 1.55419 7.83567 1.4704 7.87696 1.39592C7.91825 1.32144 7.97788 1.25874 8.0502 1.21377C8.12252 1.1688 8.20512 1.14304 8.29018 1.13894C8.37524 1.13484 8.45994 1.15254 8.53625 1.19035L12.7862 3.29535ZM20.0642 3.68235V13.4123C20.0642 14.0423 19.6142 14.8224 19.0542 15.1424L15.5632 17.1434C15.4872 17.187 15.401 17.2099 15.3133 17.2098C15.2256 17.2096 15.1395 17.1864 15.0636 17.1424C14.9877 17.0984 14.9247 17.0353 14.8809 16.9592C14.8372 16.8832 14.8142 16.7971 14.8142 16.7094V3.52235C14.8143 3.43422 14.8376 3.34766 14.8819 3.27144C14.9261 3.19523 14.9897 3.13206 15.0662 3.08835L17.0742 1.94235C18.7142 1.00235 20.0642 1.78235 20.0642 3.68235Z" fill="#BABEC1"/>
</svg>
