<svg width="27" height="28" viewBox="0 0 27 28" fill="none" xmlns="http://www.w3.org/2000/svg">
<path d="M12.7167 17.4115L10.8667 19.2615C10.4767 19.6515 9.85675 19.6515 9.45675 19.2715C9.34675 19.1615 9.23675 19.0615 9.12675 18.9515C8.11552 17.9335 7.18285 16.8404 6.33675 15.6815C5.51675 14.5415 4.85675 13.4015 4.37675 12.2715C3.90675 11.1315 3.66675 10.0415 3.66675 9.00149C3.66675 8.32149 3.78675 7.67149 4.02675 7.07149C4.26675 6.46149 4.64675 5.90149 5.17675 5.40149C5.81675 4.77149 6.51675 4.46149 7.25675 4.46149C7.53675 4.46149 7.81675 4.52149 8.06675 4.64149C8.32675 4.76149 8.55675 4.94149 8.73675 5.20149L11.0567 8.47149C11.2367 8.72149 11.3667 8.95149 11.4567 9.17149C11.5467 9.38149 11.5967 9.59149 11.5967 9.78149C11.5967 10.0215 11.5267 10.2615 11.3867 10.4915C11.2567 10.7215 11.0667 10.9615 10.8267 11.2015L10.0667 11.9915C9.95675 12.1015 9.90675 12.2315 9.90675 12.3915C9.90675 12.4715 9.91675 12.5415 9.93675 12.6215C9.96675 12.7015 9.99675 12.7615 10.0167 12.8215C10.1967 13.1515 10.5067 13.5815 10.9467 14.1015C11.3967 14.6215 11.8767 15.1515 12.3967 15.6815C12.4967 15.7815 12.6067 15.8815 12.7067 15.9815C13.1067 16.3715 13.1167 17.0115 12.7167 17.4115ZM23.6367 20.7915C23.6354 21.1689 23.55 21.5412 23.3867 21.8815C23.2167 22.2415 22.9967 22.5815 22.7067 22.9015C22.2167 23.4415 21.6767 23.8315 21.0667 24.0815C21.0567 24.0815 21.0467 24.0915 21.0367 24.0915C20.4467 24.3315 19.8067 24.4615 19.1167 24.4615C18.0967 24.4615 17.0067 24.2215 15.8567 23.7315C14.7067 23.2415 13.5567 22.5815 12.4167 21.7515C12.0267 21.4615 11.6367 21.1715 11.2667 20.8615L14.5367 17.5915C14.8167 17.8015 15.0667 17.9615 15.2767 18.0715C15.3267 18.0915 15.3867 18.1215 15.4567 18.1515C15.5367 18.1815 15.6167 18.1915 15.7067 18.1915C15.8767 18.1915 16.0067 18.1315 16.1167 18.0215L16.8767 17.2715C17.1267 17.0215 17.3667 16.8315 17.5967 16.7115C17.8267 16.5715 18.0567 16.5015 18.3067 16.5015C18.4967 16.5015 18.6967 16.5415 18.9167 16.6315C19.1367 16.7215 19.3667 16.8515 19.6167 17.0215L22.9267 19.3715C23.1867 19.5515 23.3667 19.7615 23.4767 20.0115C23.5767 20.2615 23.6367 20.5115 23.6367 20.7915Z" fill="#BBBBBB"/>
</svg>
