<svg width="25" height="26" viewBox="0 0 25 26" fill="none" xmlns="http://www.w3.org/2000/svg">
<path d="M11.8499 2.84565C15.6207 2.90258 18.8447 5.52656 19.9649 9.19858H15.9184C15.4891 8.50266 14.9052 7.91955 14.2113 7.50226C13.4566 7.04849 12.5996 6.80764 11.7246 6.80703H11.724C8.80316 6.80703 6.53939 9.40537 6.74285 12.4082L6.74285 12.4082C6.91233 14.9079 8.81109 16.9951 11.2588 17.233L11.2592 17.233C11.675 17.2733 12.0939 17.2595 12.5064 17.192L12.5093 17.1915C13.6897 16.9939 14.7556 16.3619 15.5218 15.4208L15.9683 14.8725L15.5011 14.3418L14.2188 12.8849H20.3221V19.8227L19.1426 18.4824L18.5304 17.7867L17.9019 18.4677C16.4137 20.0804 14.4216 21.0471 12.3123 21.1956L12.3123 21.1955L12.3035 21.1962C12.1162 21.2114 11.9231 21.2181 11.7234 21.2181C6.91315 21.2181 2.94791 17.0274 3.06468 11.8072L3.06468 11.8072C3.17747 6.75969 7.1695 2.77472 11.8498 2.84565L11.8499 2.84565ZM20.6934 12.8849C20.6932 12.8849 20.6931 12.8849 20.6929 12.8849L20.6934 12.8849ZM13.4667 12.5428V12.5428Z" stroke="#FFB200" stroke-width="1.67025"/>
</svg>
