<svg width="39" height="28" viewBox="0 0 39 28" fill="none" xmlns="http://www.w3.org/2000/svg">
<path d="M5.61145 0.476765C2.12848 3.95974 0 8.74882 0 14.07C0 19.3912 2.08011 24.3254 5.61145 27.8084L9.09442 24.3254C6.48219 21.7132 4.83746 18.0851 4.83746 14.0217C4.83746 10.0066 6.43382 6.52359 9.09442 3.91136L5.61145 0.428391V0.476765ZM33.1366 0.476765L29.6536 3.95974C32.2659 6.57196 33.9106 10.0549 33.9106 14.07C33.9106 18.0851 32.3142 21.7132 29.6536 24.3738L33.1366 27.8568C36.6196 24.3738 38.748 19.4396 38.748 14.1184C38.748 8.79719 36.6679 4.00811 33.1366 0.52514V0.476765ZM12.5774 7.29758C10.8359 9.03907 9.72329 11.4578 9.72329 14.1184C9.72329 16.779 10.8359 19.3429 12.5774 21.0843L15.9152 17.6014C15.0445 16.7306 14.5608 15.4729 14.5608 14.1184C14.5608 12.7639 15.0445 11.6997 15.9152 10.7806L12.5774 7.29758ZM26.1707 7.29758L22.8328 10.7806C23.7035 11.6513 24.1873 12.7639 24.1873 14.1184C24.1873 15.4729 23.7035 16.7306 22.8328 17.6014L26.1707 21.0843C27.9121 19.3429 29.0248 16.779 29.0248 14.1184C29.0248 11.4578 27.9121 9.03907 26.1707 7.29758Z" fill="#FFB200"/>
</svg>
