<svg width="25" height="25" viewBox="0 0 25 25" fill="none" xmlns="http://www.w3.org/2000/svg">
<path d="M12.3078 12.2821C13.6339 12.2821 14.9056 11.7553 15.8433 10.8176C16.781 9.87994 17.3078 8.60817 17.3078 7.28209C17.3078 5.95601 16.781 4.68424 15.8433 3.74656C14.9056 2.80887 13.6339 2.28209 12.3078 2.28209C10.9817 2.28209 9.70992 2.80887 8.77224 3.74656C7.83456 4.68424 7.30777 5.95601 7.30777 7.28209C7.30777 8.60817 7.83456 9.87994 8.77224 10.8176C9.70992 11.7553 10.9817 12.2821 12.3078 12.2821ZM12.3078 14.7821C7.29777 14.7821 3.21777 18.1421 3.21777 22.2821C3.21777 22.5621 3.43777 22.7821 3.71777 22.7821H20.8978C21.1778 22.7821 21.3978 22.5621 21.3978 22.2821C21.3978 18.1421 17.3178 14.7821 12.3078 14.7821Z" fill="#BBBBBB"/>
</svg>
