<svg width="25" height="25" viewBox="0 0 25 25" fill="none" xmlns="http://www.w3.org/2000/svg">
<path d="M12.3078 12.923C13.6339 12.923 14.9056 12.3962 15.8433 11.4585C16.781 10.5209 17.3078 9.24909 17.3078 7.923C17.3078 6.59692 16.781 5.32515 15.8433 4.38747C14.9056 3.44979 13.6339 2.923 12.3078 2.923C10.9817 2.923 9.70992 3.44979 8.77224 4.38747C7.83456 5.32515 7.30777 6.59692 7.30777 7.923C7.30777 9.24909 7.83456 10.5209 8.77224 11.4585C9.70992 12.3962 10.9817 12.923 12.3078 12.923ZM12.3078 15.423C7.29777 15.423 3.21777 18.783 3.21777 22.923C3.21777 23.203 3.43777 23.423 3.71777 23.423H20.8978C21.1778 23.423 21.3978 23.203 21.3978 22.923C21.3978 18.783 17.3178 15.423 12.3078 15.423Z" fill="#FFB200"/>
</svg>
