<svg width="48" height="38" viewBox="0 0 48 38" fill="none" xmlns="http://www.w3.org/2000/svg">
<path d="M12.3235 34.0028H42.9744C43.3775 34.0028 43.7042 33.6843 43.7042 33.2913V11.9452C43.7042 11.5522 43.3775 11.2336 42.9744 11.2336H12.3235C11.9205 11.2336 11.5938 11.5522 11.5938 11.9452V33.2913C11.5938 33.6843 11.9205 34.0028 12.3235 34.0028Z" fill="#EDF4FF"/>
<path d="M35.6768 0.560608H3.5663C3.03466 0.560608 2.53612 0.699002 2.10674 0.941103L1.37695 3.40676V26.176H30.7507L38.5959 11.2337V3.40676C38.5959 1.83488 37.289 0.560608 35.6768 0.560608Z" fill="#DBEAFF"/>
<path d="M31.2979 12.6569L23.0853 16.0885C21.7926 16.6287 20.3435 16.6957 19.0041 16.2773L16.7015 15.5581C15.526 15.1908 14.2397 15.428 13.2829 16.1884L4.2959 23.3299L21.8107 24.0415L31.2979 12.6569Z" fill="#B3E59F"/>
<path d="M0.646973 3.40673V24.0413L1.4148 24.6343L2.10654 23.5433V0.941071C1.23764 1.43417 0.646973 2.35596 0.646973 3.40673Z" fill="#C3DDFF"/>
<path d="M35.3569 9.88037C34.2333 9.41084 32.9286 9.67375 32.0878 10.539L21.6618 21.2692C20.9103 22.0425 19.689 22.1573 18.7999 21.538L16.4744 19.9186C15.7019 19.3807 14.7093 19.2424 13.8134 19.5482L2.10633 23.5432L1.46777 25.494C1.46777 27.0659 2.77472 28.3402 4.38691 28.3402H35.6764L38.2049 27.599C38.4533 27.1804 38.5955 26.6944 38.5955 26.1759V11.2336L35.3569 9.88037Z" fill="#92D4A1"/>
<path d="M42.6081 9.09919H41.5135C41.1101 9.09919 40.7837 8.7806 40.7837 8.38766C40.7837 7.99471 41.1101 7.67612 41.5135 7.67612H42.6081C43.0115 7.67612 43.3379 7.99471 43.3379 8.38766C43.3379 8.7806 43.0115 9.09919 42.6081 9.09919Z" fill="#EDF4FF"/>
<path d="M42.7564 37.5605H40.5022C40.0988 37.5605 39.7724 37.2419 39.7724 36.849C39.7724 36.456 40.0988 36.1374 40.5022 36.1374H42.7564C43.1597 36.1374 43.4861 36.456 43.4861 36.849C43.4861 37.2419 43.1597 37.5605 42.7564 37.5605ZM37.4961 37.5605H35.2419C34.8385 37.5605 34.5121 37.2419 34.5121 36.849C34.5121 36.456 34.8385 36.1374 35.2419 36.1374H37.4961C37.8995 36.1374 38.2259 36.456 38.2259 36.849C38.2259 37.2419 37.8995 37.5605 37.4961 37.5605ZM32.2358 37.5605H29.9816C29.5782 37.5605 29.2518 37.2419 29.2518 36.849C29.2518 36.456 29.5782 36.1374 29.9816 36.1374H32.2358C32.6392 36.1374 32.9656 36.456 32.9656 36.849C32.9656 37.2419 32.6392 37.5605 32.2358 37.5605ZM26.9755 37.5605H24.7213C24.3179 37.5605 23.9915 37.2419 23.9915 36.849C23.9915 36.456 24.3179 36.1374 24.7213 36.1374H26.9755C27.3789 36.1374 27.7053 36.456 27.7053 36.849C27.7053 37.2419 27.3789 37.5605 26.9755 37.5605ZM21.7152 37.5605H19.461C19.0576 37.5605 18.7313 37.2419 18.7313 36.849C18.7313 36.456 19.0576 36.1374 19.461 36.1374H21.7152C22.1186 36.1374 22.445 36.456 22.445 36.849C22.445 37.2419 22.1186 37.5605 21.7152 37.5605ZM16.455 37.5605H14.2008C13.7974 37.5605 13.471 37.2419 13.471 36.849C13.471 36.456 13.7974 36.1374 14.2008 36.1374H16.455C16.8584 36.1374 17.1847 36.456 17.1847 36.849C17.1847 37.2419 16.8584 37.5605 16.455 37.5605ZM11.1975 37.5345C11.1648 37.5345 11.1319 37.5324 11.0984 37.5279C10.1527 37.4025 9.30674 36.9279 8.71671 36.1913C8.46867 35.8818 8.52496 35.4346 8.84214 35.1925C9.16142 34.95 9.61899 35.0056 9.86694 35.3152C10.2219 35.7578 10.7285 36.0427 11.2951 36.1181C11.695 36.1709 11.9743 36.5298 11.9202 36.9189C11.8703 37.2756 11.5568 37.5345 11.1975 37.5345ZM45.595 36.8827C45.3891 36.8827 45.1838 36.7979 45.0399 36.6326C44.7783 36.3335 44.8146 35.8846 45.1218 35.6296C45.5601 35.2654 45.8308 34.7589 45.8837 34.2041C45.9214 33.8126 46.282 33.5277 46.6783 33.5617C47.0795 33.5981 47.3746 33.9449 47.3376 34.3361C47.2485 35.2627 46.7981 36.1066 46.0683 36.7129C45.9306 36.8267 45.7624 36.8827 45.595 36.8827ZM46.6234 32.0513C46.22 32.0513 45.8936 31.7327 45.8936 31.3398V29.1419C45.8936 28.749 46.22 28.4304 46.6234 28.4304C47.0268 28.4304 47.3532 28.749 47.3532 29.1419V31.3398C47.3532 31.7327 47.0268 32.0513 46.6234 32.0513ZM46.6234 26.9228C46.22 26.9228 45.8936 26.6042 45.8936 26.2113V24.0131C45.8936 23.6201 46.22 23.3015 46.6234 23.3015C47.0268 23.3015 47.3532 23.6201 47.3532 24.0131V26.2113C47.3532 26.6042 47.0268 26.9228 46.6234 26.9228ZM46.6234 21.7941C46.22 21.7941 45.8936 21.4755 45.8936 21.0825V18.8844C45.8936 18.4915 46.22 18.1729 46.6234 18.1729C47.0268 18.1729 47.3532 18.4915 47.3532 18.8844V21.0826C47.3532 21.4755 47.0268 21.7941 46.6234 21.7941ZM46.6234 16.6653C46.22 16.6653 45.8936 16.3467 45.8936 15.9538V13.7555C45.8936 13.3626 46.22 13.044 46.6234 13.044C47.0268 13.044 47.3532 13.3626 47.3532 13.7555V15.9538C47.3532 16.3467 47.0268 16.6653 46.6234 16.6653ZM46.5935 11.5379C46.2364 11.5379 45.9243 11.2822 45.8715 10.9275C45.7903 10.3758 45.4945 9.88317 45.0377 9.54057C44.7184 9.30087 44.6593 8.85402 44.9051 8.54272C45.1496 8.23107 45.6071 8.17272 45.9285 8.41278C46.6883 8.9829 47.1808 9.80428 47.3169 10.7253C47.3739 11.1144 47.0967 11.4751 46.6976 11.5307C46.6626 11.5355 46.6277 11.5379 46.5935 11.5379Z" fill="#EDF4FF"/>
<path d="M8.67461 33.6475C8.27122 33.6475 7.94482 33.3289 7.94482 32.936V31.8687C7.94482 31.4757 8.27122 31.1571 8.67461 31.1571C9.078 31.1571 9.40439 31.4757 9.40439 31.8687V32.936C9.40439 33.3289 9.078 33.6475 8.67461 33.6475Z" fill="#EDF4FF"/>
<path d="M8.6745 11.2337C10.2867 11.2337 11.5936 9.95939 11.5936 8.38751C11.5936 6.81562 10.2867 5.54135 8.6745 5.54135C7.06231 5.54135 5.75537 6.81562 5.75537 8.38751C5.75537 9.95939 7.06231 11.2337 8.6745 11.2337Z" fill="white"/>
<path d="M5.75546 27.5993C3.74025 27.5993 2.10654 26.0064 2.10654 24.0416V23.5435L0.646973 24.0416V26.1762C0.646973 27.7481 1.95392 29.0223 3.56611 29.0223H35.6766C36.7543 29.0223 37.6994 28.4463 38.2051 27.5993H5.75546Z" fill="#78C2A4"/>
</svg>
